<?xml version="1.0" standalone="no"?><!DOCTYPE svg PUBLIC "-//W3C//DTD SVG 1.1//EN" "http://www.w3.org/Graphics/SVG/1.1/DTD/svg11.dtd"><svg t="1691907224083" class="icon" viewBox="0 0 1029 1024" version="1.1" xmlns="http://www.w3.org/2000/svg" p-id="4039" xmlns:xlink="http://www.w3.org/1999/xlink" width="200.9765625" height="200"><path d="M166.187235 790.834764l-17.583636 15.010421a42.886918 42.886918 0 0 1-44.38796 6.433038l-77.839756-31.950754A42.886918 42.886918 0 0 1 0.000429 740.871505V283.268092a42.886918 42.886918 0 0 1 26.375454-39.455964l77.839756-31.950754a42.886918 42.886918 0 0 1 44.38796 7.076341l17.583636 15.010422a23.587805 23.587805 0 0 0-33.022926 5.575299 21.443459 21.443459 0 0 0-4.503127 13.08051v518.931705a23.802239 23.802239 0 0 0 23.80224 23.802239 24.445543 24.445543 0 0 0 13.723813-4.503126z" fill="#52218A" p-id="4040"></path><path d="M1029.286456 166.615676v2.35878a40.528137 40.528137 0 0 0-66.260288-31.30745L166.187235 790.834764l-17.583636 15.010421a42.886918 42.886918 0 0 1-44.38796 6.433038l-77.839756-31.950754A42.886918 42.886918 0 0 1 0.000429 740.871505v-3.645388a24.874412 24.874412 0 0 0 24.659978 24.874412 24.445543 24.445543 0 0 0 18.22694-8.362949L707.634572 18.870244A64.330377 64.330377 0 0 1 780.756767 6.433038l212.075809 102.070864A64.330377 64.330377 0 0 1 1029.286456 166.615676z" fill="#6C33AF" p-id="4041"></path><path d="M1029.286456 855.165141V857.738356a64.330377 64.330377 0 0 1-36.45388 57.897339l-212.075809 102.070864a64.330377 64.330377 0 0 1-73.122195-12.437206L42.887347 270.402017a24.874412 24.874412 0 0 0-34.952838-1.929912 25.088847 25.088847 0 0 0-7.93408 18.441375v-3.645388a42.886918 42.886918 0 0 1 26.375454-39.455964l77.839756-31.950754a42.886918 42.886918 0 0 1 44.38796 7.076341l17.583636 15.010422 796.838933 652.524454A40.528137 40.528137 0 0 0 1029.286456 855.165141z" fill="#854CC7" p-id="4042"></path><path d="M707.634572 1005.269353l4.717561 4.074257zM712.352133 14.795987L707.634572 18.870244zM992.832576 108.289467L780.756767 6.433038a64.330377 64.330377 0 0 0-68.404634 8.362949 37.740488 37.740488 0 0 1 52.536475 8.791818 36.882749 36.882749 0 0 1 7.076341 21.443459v933.6482a37.740488 37.740488 0 0 1-59.612816 30.664146 64.330377 64.330377 0 0 0 68.404634 8.362949l212.075809-101.85643A64.330377 64.330377 0 0 0 1029.286456 857.738356V166.401241a64.330377 64.330377 0 0 0-36.45388-58.111774z" fill="#B179F1" p-id="4043"></path></svg>