<?xml version="1.0" standalone="no"?><!DOCTYPE svg PUBLIC "-//W3C//DTD SVG 1.1//EN" "http://www.w3.org/Graphics/SVG/1.1/DTD/svg11.dtd"><svg t="1691907248763" class="icon" viewBox="0 0 1024 1024" version="1.1" xmlns="http://www.w3.org/2000/svg" p-id="5035" xmlns:xlink="http://www.w3.org/1999/xlink" width="200" height="200"><path d="M0 0m184.32 0l655.36 0q184.32 0 184.32 184.32l0 655.36q0 184.32-184.32 184.32l-655.36 0q-184.32 0-184.32-184.32l0-655.36q0-184.32 184.32-184.32Z" fill="#FFFFFF" p-id="5036"></path><path d="M708.82304 161.9968l137.46176 67.24608c20.81792 10.62912 23.7056 18.28864 23.7056 29.29664l0.60416 506.23488c0 13.50656-7.30112 18.82112-27.42272 30.1568l-133.8368 67.08224c-5.5808 2.60096-10.04544 5.76512-43.47904 5.76512 0 0 28.93824 0.24576 28.93824-22.87616v-662.87616a25.15968 25.15968 0 0 0-24.13568-25.76384c29.6448 0 38.16448 5.7344 38.16448 5.7344z" fill="#4B9AE9" p-id="5037"></path><path d="M163.34848 613.02784a29.21472 29.21472 0 0 0 0 38.98368s35.11296 32.62464 45.4656 41.984 25.7024 5.12 35.64544-2.37568 450.29376-343.64416 450.29376-343.64416v-165.94944a25.06752 25.06752 0 0 0-24.13568-25.76384 18.11456 18.11456 0 0 0-12.3392 5.376z" fill="#2A63A4" p-id="5038"></path><path d="M208.92672 331.74528a23.17312 23.17312 0 0 1 32.45056 0l453.4272 343.61344v169.55392c0 23.25504-28.9792 22.8352-28.9792 22.8352a17.00864 17.00864 0 0 1-10.11712-5.53984l-495.77984-454.13376a22.31296 22.31296 0 0 1 0-31.54944z" fill="#3478C6" p-id="5039"></path></svg>